<?xml version="1.0"?>
<svg xmlns="http://www.w3.org/2000/svg" xmlns:xlink="http://www.w3.org/1999/xlink" version="1.1" id="Capa_1" x="0px" y="0px" viewBox="0 0 512 512" style="enable-background:new 0 0 512 512;" xml:space="preserve" width="512px" height="512px"><g><g>
	<g>
		<path d="M395.875,9.612C390.99,3.531,383.609-0.005,375.808,0H136.192c-7.801-0.005-15.182,3.531-20.067,9.612    C35.067,112.242,34.133,250.179,34.133,256s0.933,143.758,81.992,246.388c4.885,6.081,12.266,9.617,20.067,9.612h239.616    c7.8,0.004,15.181-3.531,20.067-9.612C476.933,399.758,477.867,261.821,477.867,256S476.933,112.242,395.875,9.612z     M458.365,221.867h-75.987c-2.611-34.494-7.914-68.732-15.86-102.4h68.889C446.77,152.661,454.468,186.998,458.365,221.867z     M375.808,17.067c2.581-0.025,5.033,1.123,6.667,3.121c7.762,9.874,14.888,20.233,21.334,31.013h-58.341    c-4.878-12.258-9.958-23.609-15.39-34.133H375.808z M264.533,17.067h46.144c6.095,11.065,11.569,22.46,16.398,34.133h-62.542    V17.067z M201.323,17.067h46.144V51.2h-62.542C189.754,39.527,195.228,28.132,201.323,17.067z M129.525,20.188    c1.634-1.998,4.086-3.146,6.667-3.121h45.73c-5.431,10.525-10.513,21.875-15.391,34.133h-58.341    C114.637,40.42,121.763,30.062,129.525,20.188z M98.571,68.267h73.698l0.023,0.004l0.027-0.004h167.363l0.027,0.004l0.023-0.004    h73.698c5.778,11.104,10.983,22.496,15.594,34.133H82.977C87.588,90.763,92.793,79.37,98.571,68.267z M365.265,221.867H264.533    v-102.4h84.425C357.144,153.105,362.597,187.35,365.265,221.867z M247.467,119.467v102.4H146.735    c2.668-34.517,8.121-68.762,16.306-102.4H247.467z M76.595,119.467h68.889c-7.947,33.668-13.25,67.906-15.86,102.4H53.635    C57.532,186.998,65.231,152.661,76.595,119.467z M53.635,290.133h75.988c2.611,34.494,7.914,68.732,15.86,102.4H76.595    C65.23,359.339,57.532,325.002,53.635,290.133z M136.192,494.933c-2.581,0.025-5.033-1.123-6.667-3.121h0    c-7.762-9.874-14.888-20.233-21.335-31.013h58.341c4.878,12.258,9.959,23.609,15.391,34.133H136.192z M247.467,494.933h-46.144    c-6.095-11.065-11.569-22.46-16.398-34.133h62.542V494.933z M310.677,494.933h-46.144V460.8h62.542    C322.246,472.473,316.772,483.868,310.677,494.933z M382.475,491.813c-1.634,1.998-4.086,3.146-6.667,3.121h-45.729    c5.431-10.524,10.511-21.875,15.39-34.133h58.341C397.363,471.58,390.237,481.938,382.475,491.813z M413.429,443.733H98.571    c-5.778-11.104-10.983-22.496-15.594-34.133H156.3l0.025,0.004l0.032-0.004h199.285l0.032,0.004l0.025-0.004h73.323    C424.412,421.237,419.207,432.63,413.429,443.733z M146.735,290.133h100.731v102.4h-84.425    C154.856,358.895,149.403,324.65,146.735,290.133z M264.533,392.533v-102.4h100.731c-2.668,34.517-8.121,68.762-16.306,102.4    H264.533z M435.405,392.533h-68.889c7.947-33.668,13.25-67.906,15.86-102.4h75.987    C454.468,325.002,446.769,359.339,435.405,392.533z M52.031,273.067c-0.777-10.519-0.831-16.779-0.831-17.062    c0-0.286,0.054-6.548,0.831-17.071h407.938c0.777,10.519,0.831,16.779,0.831,17.063c0,0.286-0.054,6.548-0.831,17.071H52.031z" data-original="#000000" class="active-path" data-old_color="#000000" fill="#5F7D95"/>
	</g>
</g></g> </svg>
